<svg xmlns="http://www.w3.org/2000/svg" width="32" height="32" viewBox="0 0 24 24"><path fill="#ef2929" d="M7 21q-1.25 0-2.125-.875T4 18H1v-7h11V5h4V3h3v2h2l2 6v7h-3q0 1.25-.875 2.125T17 21q-1.25 0-2.125-.875T14 18h-4q0 1.25-.875 2.125T7 21Zm0-2q.425 0 .713-.288T8 18q0-.425-.288-.713T7 17q-.425 0-.713.288T6 18q0 .425.288.713T7 19Zm10 0q.425 0 .713-.288T18 18q0-.425-.288-.713T17 17q-.425 0-.713.288T16 18q0 .425.288.713T17 19Zm-3-8h6.9l-1.35-4H14v4ZM1 10V8.5h1v-2H1V5h10v1.5h-1v2h1V10H1Zm2.5-1.5h1.75v-2H3.5v2Zm3.25 0H8.5v-2H6.75v2ZM12 13v3H9.225q-.425-.475-1-.738T7 15q-.65 0-1.225.263t-1 .737H3v-3h9Zm2 0h7v3h-1.775q-.425-.475-1-.738T17 15q-.65 0-1.225.263t-1 .737H14v-3Z"/></svg>